<svg xmlns="http://www.w3.org/2000/svg" xmlns:xlink="http://www.w3.org/1999/xlink" viewBox="0 0 650 650"><defs><style>.cls-1{fill:#e9ecf5;}.cls-2{fill:url(#Безымянный_градиент_123);}.cls-3{fill:url(#Безымянный_градиент_64);}.cls-4{fill:#1f1844;}.cls-5{fill:url(#Безымянный_градиент_123-2);}.cls-6{fill:url(#Безымянный_градиент_123-3);}.cls-7{fill:url(#Безымянный_градиент_123-4);}.cls-8{fill:url(#Безымянный_градиент_123-5);}.cls-9{fill:url(#Безымянный_градиент_123-6);}.cls-10{fill:url(#Безымянный_градиент_250);}.cls-11{fill:#201f4f;}.cls-12{fill:url(#Безымянный_градиент_170);}.cls-13{fill:url(#Безымянный_градиент_3);}.cls-14{fill:url(#Безымянный_градиент_123-7);}.cls-15{fill:url(#Безымянный_градиент_63);}</style><linearGradient id="Безымянный_градиент_123" x1="409.89" y1="280.65" x2="331.53" y2="207.09" gradientUnits="userSpaceOnUse"><stop offset="0" stop-color="#753200"/><stop offset="1" stop-color="#a04400"/></linearGradient><linearGradient id="Безымянный_градиент_64" x1="319.88" y1="214.81" x2="344.8" y2="209.49" gradientUnits="userSpaceOnUse"><stop offset="0" stop-color="#a04400" stop-opacity="0"/><stop offset="0.06" stop-color="#953f00" stop-opacity="0.27"/><stop offset="0.12" stop-color="#8b3b00" stop-opacity="0.49"/><stop offset="0.19" stop-color="#833800" stop-opacity="0.68"/><stop offset="0.27" stop-color="#7d3500" stop-opacity="0.82"/><stop offset="0.37" stop-color="#783300" stop-opacity="0.93"/><stop offset="0.51" stop-color="#763200" stop-opacity="0.98"/><stop offset="0.9" stop-color="#753200"/></linearGradient><linearGradient id="Безымянный_градиент_123-2" x1="348.01" y1="967.31" x2="358.23" y2="967.31" gradientTransform="translate(-419.32 -426.48) rotate(-26.38)" xlink:href="#Безымянный_градиент_123"/><linearGradient id="Безымянный_градиент_123-3" x1="400.66" y1="992.68" x2="349" y2="944.17" gradientTransform="translate(-419.32 -426.48) rotate(-26.38)" xlink:href="#Безымянный_градиент_123"/><linearGradient id="Безымянный_градиент_123-4" x1="504.12" y1="200.56" x2="341.89" y2="48.25" xlink:href="#Безымянный_градиент_123"/><linearGradient id="Безымянный_градиент_123-5" x1="384.4" y1="987.57" x2="439.83" y2="968.7" gradientTransform="translate(-419.32 -426.48) rotate(-26.38)" xlink:href="#Безымянный_градиент_123"/><linearGradient id="Безымянный_градиент_123-6" x1="176.21" y1="424.27" x2="337.77" y2="424.27" xlink:href="#Безымянный_градиент_123"/><linearGradient id="Безымянный_градиент_250" x1="316.88" y1="377.19" x2="483.03" y2="377.19" gradientUnits="userSpaceOnUse"><stop offset="0" stop-color="#a7a5ee"/><stop offset="0.44" stop-color="#9d9ce8"/><stop offset="0.89" stop-color="#8988d5"/></linearGradient><linearGradient id="Безымянный_градиент_170" x1="31.52" y1="456.68" x2="326.57" y2="456.68" gradientUnits="userSpaceOnUse"><stop offset="0.01" stop-color="#bbbfd9"/><stop offset="1" stop-color="#d6dbf8"/></linearGradient><linearGradient id="Безымянный_градиент_3" x1="389.53" y1="331.22" x2="631.52" y2="331.22" gradientUnits="userSpaceOnUse"><stop offset="0.09" stop-color="#d9d9d9"/><stop offset="0.12" stop-color="#d6d6d6"/><stop offset="0.7" stop-color="#aeaeae"/><stop offset="1" stop-color="#9f9f9f"/></linearGradient><linearGradient id="Безымянный_градиент_123-7" x1="267.52" y1="361.18" x2="404.97" y2="361.18" xlink:href="#Безымянный_градиент_123"/><linearGradient id="Безымянный_градиент_63" x1="292.12" y1="255.23" x2="381.59" y2="204.33" gradientUnits="userSpaceOnUse"><stop offset="0" stop-color="#1f1844" stop-opacity="0"/><stop offset="0.11" stop-color="#1f1844" stop-opacity="0.24"/><stop offset="0.29" stop-color="#1f1844" stop-opacity="0.58"/><stop offset="0.49" stop-color="#1f1844" stop-opacity="0.81"/><stop offset="0.71" stop-color="#1f1844" stop-opacity="0.96"/><stop offset="1" stop-color="#1f1844"/></linearGradient></defs><title>1</title><g id="Слой_1" data-name="Слой 1"><path class="cls-1" d="M616.86,319.16C561.84,206.69,404.48,42,200,41.53c-213.36-.44-234,211.17-119,270S27.87,443.66,148.07,517.32c121.66,74.56,374.5,58.49,445.67,9.56C671.21,473.63,640.63,367.75,616.86,319.16Z"/></g><g id="Слой_2" data-name="Слой 2"><path class="cls-2" d="M394,211.19c1,3-3.57,6.18-3.57,6.18s0,7.14-4.94,8.65c1.43,3.79.29,13.52-1.13,22l-7,.38c-4.85.28-9.18.58-11.93,1-1.86.28-3,.62-3.09,1a15.71,15.71,0,0,1-1.66,3.11c0,3.32-2.1.67-2.27,6-.07,2.4-.19,4.72-.36,6.69-.06.58-.11,1.13-.17,1.65-.94,8-12.27,14.92-19.54,11.09s-20.58-6.47-20.58-6.47-7.54-1.83-8.21-4.45,8.41-12,6.78-17.14c-.74-2.38-2.43-4.22-4-6.23-1.87-2.37-3.62-5-3.58-9v-.09c0-1.26,0-6.35,0-10.78v-5.25c0-1.15,0-1.86,0-1.86a27.44,27.44,0,0,0,.94-4h0c4.18-10.56,21-18.09,31.72-20.74-4.2-6.71-3.39-13.76-.7-19.29,4,3.23,14.66,4.07,27.16,3.77,5.83-.13,12.07-.51,18.22-1a15.08,15.08,0,0,1-2.39,4.73A53.59,53.59,0,0,1,395.83,188c5.9,4.54,2.33,9.47,2.33,9.47s3.71,4.4,4.27,7.56S398.71,211.19,394,211.19Z"/><path class="cls-3" d="M367.91,177.41C365,201,360.73,230,360.77,231.73c.07,3.88-1.51,8.77-2,11.5l-6.46,1.35-8.46-9.31s-24.62-6-35-10.47v-5.25c0-1.15,0-1.86,0-1.86a27.44,27.44,0,0,0,.94-4h0c4.18-10.56,21-18.09,31.72-20.74-4.2-6.71-3.39-13.76-.7-19.29C344.76,176.87,355.41,177.71,367.91,177.41Z"/><path class="cls-4" d="M370,246.49c-2.84,2.42-6.06,6.3-6.16,10.95A18.82,18.82,0,0,0,367,268c-.34,0-.54,0-.54,0s2.73,15.7.48,20.7c-1.06,2.35-8.11,5.94-15.85,9.06-8.75,3.54-18.42,6.49-21.3,6.42-5.44-.14-7.18-8.75-6.41-12.92a10.14,10.14,0,0,0,0-3.32c4-.36,9.65-1.21,9.74-3.1.1-2.19-8-3.69-13.19-3.86a4.47,4.47,0,0,0-1.09-.74c-2.91-1.4-1-7.81-1-7.81s13.3,2.63,20.57,6.47,18.6-3,19.54-11.09c.72-6.09.7-17.57.63-22.82.09.22.12.34.12.34S365.09,247.55,370,246.49Z"/><path class="cls-5" d="M333.16,284.92c-.09,1.89-5.78,2.74-9.74,3.1a11.85,11.85,0,0,0-3.45-7C325.14,281.23,333.27,282.73,333.16,284.92Z"/><path class="cls-6" d="M380,258.37a7.9,7.9,0,0,1-1,4c.42,1.38,1,3.27,1.71,5.44l1.56,4.65c2.08,6,4.66,12.53,7,16,4.87,7.27-18,29.34-24.67,29.19-4.72-.1-9.63-10.38-12.13-16.46-.58-1.4-1-2.59-1.32-3.36,7.75-3.12,14.8-6.71,15.85-9.07a14.41,14.41,0,0,0,.86-5c.26-6.55-1.34-15.74-1.34-15.74s-3.33-6.52-3.25-10.38a16.68,16.68,0,0,1,5.6-11.62c.17,0,1.86-1,2-1C375.89,243.72,380,248.76,380,258.37Z"/><path class="cls-7" d="M531,217.33a120.07,120.07,0,0,1-9.5-19.52L520,193.16c-.71-2.16-1.29-4.06-1.71-5.44.63-1.11,1.49-1.42,2.06-2.91,2.59-6.76.19-31.71-11.92-25.07-.16.09-6.41-22.19-9.43-22.66-5.64-.87-25-5.07-37.1-2.5l-8.11,5c-1.59.34-8,15.24-8,17.57,0,0,0,.07,0,.1,0,4,3.4,9.86,4.92,15.59,1.39,5.26-3.36,14.36-2.69,17s6.83,4.26,6.83,4.26h0S458,221,469.13,225.72c5.65,2.41,19.67-4.34,20.25-2.94,2.49,6.08,7.4,16.35,12.13,16.46C508.2,239.39,535.92,224.6,531,217.33Z"/><path class="cls-8" d="M378.36,263.25l3.91,9.24s0,.06,0,.09c0,.32.06.66.09,1-7.71,16.67-19.9,24-29.94,27.61-.58-1.4-1-2.59-1.32-3.36,7.75-3.12,14.8-6.71,15.85-9.07a14.41,14.41,0,0,0,.86-5A38.55,38.55,0,0,0,378.36,263.25Z"/></g><g id="Слой_3" data-name="Слой 3"><path class="cls-9" d="M337.77,445.92H217.63l-14.45-22-5.66,6.2a16.38,16.38,0,0,0-5.89-1.07H176.21l2.66-6.87s8.22-4.21,12.06-8.41-4.91-2.8-8.78-3.53-4.88-6.65,0-5.94,12.62-1.74,23.5-1.74,27.78,30.26,27.78,30.26c31.15-13.66,83.45-12,83.45-12Z"/><path class="cls-10" d="M460,467.6c-21.13,0-34.74-.17-70.11-.17l-27.24-47.67s-14.69,26.36-24.9,26.16l-20.89-25.1s29-102.71,40.18-109.72,35.39-24.53,35.39-24.53,32.31,14.68,66.32,101.94S489,467.6,460,467.6Z"/><polygon class="cls-11" points="627.9 467.43 516.96 467.43 521.12 437.51 627.9 430.19 627.9 467.43"/></g><g id="_01" data-name="01"><path class="cls-12" d="M326.57,467.43h-295A21.5,21.5,0,0,1,53,445.93H316.87Z"/><path class="cls-11" d="M208.45,445.92H99.1L90,429.1H191.63a16.38,16.38,0,0,1,5.89,1.07A16.86,16.86,0,0,1,208.45,445.92Z"/><path class="cls-11" d="M41.15,336.58,99.1,445.93H79.48l-48.76-92a11.81,11.81,0,0,1,10.43-17.34Z"/><path class="cls-4" d="M518.28,187.72c12.82-11.14,8.77-42.71-2.61-57C509.5,123,494,117,483.86,119.52c-32.63,8.28-42.11,29.84-38.22,41.29,15.07-2.48,32.29-9,32.29-9s4.36,11.2,7.59,16.82c12.73-4.21,13.77,2.28,15.88,10.29,1.05-.53,2.55-1.13,2.55-1.13s-.6-7.83,4.7-9.63C522.86,163.36,515.67,185.05,518.28,187.72Z"/><path class="cls-13" d="M631.52,434.64,520.11,444.75s-14.9-102.65-28.92-124.21c-5.81,8.41-85.4,40.19-85.4,40.19l-.82-1.29-14.38-22.59-1.06-1.67S404,325.87,411,321.81s48.3-52.26,57.1-64.87c12.78-18.33,30.54-27.75,43.34-33.67s19.93-8.12,32.74-1.64C573.56,236.48,631.52,434.64,631.52,434.64Z"/><path class="cls-14" d="M405,359.44c-17.93,8.17-74.4,12.77-74.4,12.77s-25.49,13.94-30.28,13.29-2.83-4.79-5.66-5-1.52-7.41-1.52-7.41l-.87-1.31c-.87-1.31-.57-9.53-.57-9.53S266.26,362,267.57,358s63-4.13,63-4.13l60-17.06Z"/><path class="cls-15" d="M394,211.19c1,3-3.57,6.18-3.57,6.18s0,7.14-4.94,8.65c1.43,3.79.29,13.52-1.13,22-1.31,7.76-2.85,14.44-2.85,14.44l-3.13,2.22c1.85-8.37,1.09-13.65-1-16.27a5,5,0,0,0-3.17-1.94c-4.59-.76-7.26.65-8.75,2.94-3.28,5-1,14.26-1,14.26s1,.69-6.43,2.62a25.74,25.74,0,0,0,.36-6.69c-1.21-14.34-16.1-16.69-16.1-16.69L344.5,222l-35.69-2.47h0a12.37,12.37,0,0,1,0-1.86,13.27,13.27,0,0,1,.94-4h0c4.18-10.56,21-18.09,31.72-20.74-4.2-6.71-3.39-13.76-.7-19.29,3-6.23,8.47-10.53,11.82-10.24,1.79-3,10.44-3,12.64,1.37,6.87-.69,11.39,4.94,11.39,4.94s2.07-.54,7.42,1.79c2.35,1,2.58,3,2.11,4.88a15.08,15.08,0,0,1-2.39,4.73A53.59,53.59,0,0,1,395.83,188c5.9,4.54,2.33,9.47,2.33,9.47s3.71,4.4,4.27,7.56S398.71,211.19,394,211.19Z"/><path class="cls-4" d="M369.46,197.27c-1-.09-1.9-.22-2.83-.36a1.26,1.26,0,0,0-.55,0,.87.87,0,0,0-.38.17.83.83,0,0,0-.14.14l-.22.24-.5.54a2.43,2.43,0,0,1-2.11.62,2.67,2.67,0,0,1-.57-.17l-.41-.2-.64-.31-1.23-.6a.15.15,0,0,0-.16.09c0,.06,0,.09,0,.1h0v.33a2,2,0,0,1,0,.24,3,3,0,0,1-.53,1.31,3.2,3.2,0,0,1-3.89,1.06l-.65-.27-.33-.14-.16-.07-.11,0a.21.21,0,0,0,.1,0,.25.25,0,0,0,.21-.09l0-.05-.14.37a3.34,3.34,0,0,1-2.23,2,3.41,3.41,0,0,1-.77.12h-.39l-.27,0-2.74-.32c-.44,0-.91-.09-1.27-.11h-.14l.1,0,.2-.06.09,0,.21-.11a1.56,1.56,0,0,0,.39-.34,1.22,1.22,0,0,0,.2-.3c.08-.17,0-.15,0-.09a2.1,2.1,0,0,0,0,.21c-.06.35-.1.8-.13,1.23l0,.67a4.08,4.08,0,0,1-.2,1.2,3.18,3.18,0,0,1-2.78,2.13,4.2,4.2,0,0,1-.45,0h-.66c-.44,0-.87,0-1.29,0a7.29,7.29,0,0,0-1,.13s-.05,0,0,0a1,1,0,0,0,.28-.61.74.74,0,0,0,0-.13s0,0,0,0h0a.75.75,0,0,0,0,.09c0,.08,0,.17,0,.27.06.4.14.85.24,1.3.19.9.44,1.79.64,2.72a2.28,2.28,0,0,1-.38,2,2,2,0,0,1-1.68.81l.29-.14q-2.24,2.09-4.52,4.14,1.9-2.41,3.86-4.76l.05-.06.24-.08a.89.89,0,0,0,.55-1.32c-.45-.82-.84-1.7-1.24-2.58-.19-.45-.39-.89-.56-1.4,0-.13-.08-.27-.12-.42s0-.15-.05-.26l0-.16a.92.92,0,0,1,0-.1,2.11,2.11,0,0,1,0-.22,1.84,1.84,0,0,1,.64-1.2,2.84,2.84,0,0,1,.61-.4,7,7,0,0,1,1.72-.55c.52-.11,1-.19,1.51-.24l.74-.08c.36,0,.24,0,.22,0a.14.14,0,0,0-.14.06c0,.29,0-.48,0-.93a15.5,15.5,0,0,1,.09-1.57c0-.15,0-.3.07-.48a3.13,3.13,0,0,1,.24-.77,2.46,2.46,0,0,1,.29-.45,2.13,2.13,0,0,1,.46-.4l.24-.13.14-.05.28-.08.14,0H346l.2,0h.52c.57,0,1,.06,1.53.1,1,.08,1.91.2,2.85.33h0a.33.33,0,0,0-.12.07.28.28,0,0,0-.07.12l.12-.29a3.5,3.5,0,0,1,.36-.67,3.3,3.3,0,0,1,4.05-1.15l.22.1.16.08.31.16.63.32-.06,0a.08.08,0,0,0,0,.1s0,0,0,0,0-.05,0-.11l0-.17,0-.19.08-.33a3,3,0,0,1,1.83-1.93,2.89,2.89,0,0,1,2.55.27c.46.31.77.58,1.16.88l.85.66a.63.63,0,0,0,.54,0l.58-.37.32-.21a2.27,2.27,0,0,1,.46-.23,2.17,2.17,0,0,1,1-.12,2.32,2.32,0,0,1,.82.28C367.77,196.39,368.62,196.81,369.46,197.27Z"/><path class="cls-4" d="M371.56,204.77c-1-.09-2-.24-3-.38a.94.94,0,0,0-.86.27l-.07.08-.13.14-.25.28-.25.28a2.56,2.56,0,0,1-.46.36,2.51,2.51,0,0,1-2.35.11l-1.4-.69-.67-.33c-.15-.08-.14-.05-.16-.06h-.05a.16.16,0,0,0-.09.14c0,.09.09-.21,0,.66A3.14,3.14,0,0,1,360,208a3.19,3.19,0,0,1-1.51.29,3.34,3.34,0,0,1-.77-.14l-.35-.13-.17-.07-.69-.29-.34-.14c-.1,0,0,0,0,0a.22.22,0,0,0,.23,0s.08-.1.07-.07l-.06.18,0,.09-.08.18a3.31,3.31,0,0,1-.41.7,3.38,3.38,0,0,1-2.87,1.3l-1.58-.18c-.95-.12-2-.24-2.79-.28h-.11l.21,0,.21-.09a1.57,1.57,0,0,0,.45-.31,1.25,1.25,0,0,0,.35-.52c0-.09,0,0,0,0l0,.26c-.06.4-.09.87-.13,1.33l-.05.73a3.31,3.31,0,0,1-.44,1.5,3.19,3.19,0,0,1-2.55,1.58H345a12.75,12.75,0,0,0-1.31.08c-.21,0-.37.06-.51.08s-.1,0-.08,0a1,1,0,0,0,.25-.39.79.79,0,0,0,.07-.26.74.74,0,0,0,0-.13s0,0,0,0,0,0,0,.06a2.25,2.25,0,0,0,0,.27l.11.66c.17.93.41,1.89.65,2.85l.19.83a2.28,2.28,0,0,1-.11,1.11,2.12,2.12,0,0,1-1.49,1.36,2.15,2.15,0,0,1-.49.05l-.38,0-.75,0c-.5,0-1-.08-1.51-.14.48-.15,1-.28,1.46-.42l.73-.19.36-.09a1.14,1.14,0,0,0,.24-.11,1,1,0,0,0,.44-.75.72.72,0,0,0-.09-.36l0-.08-.08-.16-.18-.34c-.45-.91-.88-1.81-1.28-2.78-.1-.25-.2-.49-.28-.77s-.09-.28-.12-.46a2.49,2.49,0,0,1,0-.31.94.94,0,0,1,0-.1,2.15,2.15,0,0,1,0-.23,1.79,1.79,0,0,1,.85-1.36,3.6,3.6,0,0,1,.59-.33,6.17,6.17,0,0,1,.93-.31,15.33,15.33,0,0,1,1.64-.32l.79-.1.39,0,.2,0h.1s0,0,0,0a.14.14,0,0,0-.15,0,.18.18,0,0,0,0,.08v-.76c0-.53,0-1,.08-1.63,0-.15,0-.3.06-.48a3.75,3.75,0,0,1,.17-.67,2.1,2.1,0,0,1,.53-.84,2.14,2.14,0,0,1,.53-.37,2.2,2.2,0,0,1,.3-.11l.3-.07h.11l.21,0h.4c1.18,0,2.12.15,3.14.26l1.37.18a.3.3,0,0,0-.26.13l0,.06h0l0-.09.07-.17a3.39,3.39,0,0,1,.9-1.29,3.31,3.31,0,0,1,3-.75,3.64,3.64,0,0,1,.69.26l.33.17.66.34.17.08s0,0,0,0h0a.09.09,0,0,0-.05,0s0,.08,0,.09h0l0-.09,0-.18,0-.21c0-.12.05-.24.09-.35a3,3,0,0,1,.77-1.24,2.94,2.94,0,0,1,2.63-.77,3,3,0,0,1,.66.22,3,3,0,0,1,.49.3l.59.45,1.13.88a.55.55,0,0,0,.51.14l.16-.05.31-.21.7-.45a2.12,2.12,0,0,1,2-.07C369.77,203.84,370.67,204.28,371.56,204.77Z"/><path class="cls-4" d="M378.46,211.42c-1-.09-2-.24-3-.38a.94.94,0,0,0-.86.27l-.07.08-.13.14-.25.28-.25.28a2.56,2.56,0,0,1-.46.36,2.51,2.51,0,0,1-2.35.11l-1.4-.69-.67-.33c-.15-.08-.14-.05-.16-.06h-.05a.16.16,0,0,0-.09.14c0,.09.09-.21,0,.66a3.14,3.14,0,0,1-1.78,2.31,3.18,3.18,0,0,1-1.51.29,3.33,3.33,0,0,1-.77-.14l-.35-.13-.17-.07-.69-.29-.34-.14c-.1,0,0,0,0,0a.22.22,0,0,0,.23,0s.08-.1.08-.07l-.06.18,0,.09-.08.18a3.32,3.32,0,0,1-.41.7,3.38,3.38,0,0,1-2.87,1.3l-1.58-.18c-.95-.12-2-.24-2.78-.28h-.11l.21,0,.21-.09a1.57,1.57,0,0,0,.45-.31,1.25,1.25,0,0,0,.35-.52c0-.09,0,0,0,0l0,.26c-.06.4-.09.87-.13,1.33l0,.73a3.31,3.31,0,0,1-.44,1.5,3.19,3.19,0,0,1-2.55,1.58h-1.5a12.75,12.75,0,0,0-1.31.08c-.21,0-.37.06-.51.08s-.1,0-.08,0a1,1,0,0,0,.25-.39.78.78,0,0,0,.07-.26.74.74,0,0,0,0-.13s0,0,0,0,0,0,0,.06a2.3,2.3,0,0,0,0,.27l.11.66c.17.93.41,1.89.65,2.85l.19.83a2.28,2.28,0,0,1-.11,1.11,2.12,2.12,0,0,1-1.49,1.36,2.14,2.14,0,0,1-.49.05l-.38,0-.75,0c-.5,0-1-.08-1.51-.14.48-.15,1-.28,1.46-.42l.73-.19.36-.09a1.13,1.13,0,0,0,.24-.11,1,1,0,0,0,.44-.75.72.72,0,0,0-.09-.36l0-.08-.08-.16-.18-.34c-.45-.91-.88-1.81-1.28-2.78-.1-.25-.2-.49-.28-.77s-.09-.28-.12-.46a2.49,2.49,0,0,1,0-.31.83.83,0,0,1,0-.1,1.82,1.82,0,0,1,.86-1.59,3.59,3.59,0,0,1,.59-.33,6.18,6.18,0,0,1,.93-.31,15.33,15.33,0,0,1,1.64-.32l.79-.1.39,0,.2,0h.1s0,0,0,0a.14.14,0,0,0-.15,0,.18.18,0,0,0,0,.08v-.76c0-.53,0-1,.08-1.63,0-.15,0-.3.06-.48a3.75,3.75,0,0,1,.17-.67,2.11,2.11,0,0,1,.53-.84,2.14,2.14,0,0,1,.53-.37,2.21,2.21,0,0,1,.3-.11l.3-.07H355l.21,0h.4c1.18,0,2.12.15,3.14.26l1.37.18a.3.3,0,0,0-.26.13l0,.06h0l0-.09.07-.17a3.39,3.39,0,0,1,.9-1.29,3.31,3.31,0,0,1,3-.75,3.64,3.64,0,0,1,.69.26l.33.17.66.34.17.08s0,0,0,0h0a.09.09,0,0,0-.05,0s0,.08,0,.09h0l0-.09,0-.18,0-.21c0-.12.06-.24.09-.35a3,3,0,0,1,.77-1.24,2.94,2.94,0,0,1,2.63-.77,3,3,0,0,1,.66.22,3.05,3.05,0,0,1,.49.3l.59.45,1.13.88a.55.55,0,0,0,.51.14l.16-.05.31-.21.7-.45a2.12,2.12,0,0,1,2-.07C376.67,210.48,377.58,210.93,378.46,211.42Z"/><path class="cls-4" d="M377.4,221.49c-1-.09-2-.24-3-.38a.94.94,0,0,0-.86.27l-.07.08-.13.14-.25.28-.25.28a2.56,2.56,0,0,1-.46.36,2.51,2.51,0,0,1-2.35.11l-1.4-.69-.67-.33c-.15-.08-.14-.05-.16-.06h-.05a.16.16,0,0,0-.09.14c0,.09.09-.21,0,.66a3.14,3.14,0,0,1-1.78,2.31,3.19,3.19,0,0,1-1.51.29,3.34,3.34,0,0,1-.77-.14l-.35-.13-.17-.07-.69-.29-.34-.14c-.1,0,0,0,0,0a.22.22,0,0,0,.23,0s.08-.1.07-.07l-.06.18,0,.09-.08.18a3.31,3.31,0,0,1-.41.7,3.38,3.38,0,0,1-2.87,1.3l-1.58-.18c-.95-.12-2-.24-2.79-.28h-.11l.21,0,.21-.09a1.57,1.57,0,0,0,.45-.31,1.25,1.25,0,0,0,.35-.52c0-.09,0,0,0,0l0,.26c-.06.4-.09.87-.13,1.33l0,.73a3.31,3.31,0,0,1-.44,1.5,3.19,3.19,0,0,1-2.55,1.58h-1.5a12.75,12.75,0,0,0-1.31.08c-.21,0-.37.06-.51.08s-.1,0-.08,0a1,1,0,0,0,.25-.39.79.79,0,0,0,.07-.26.74.74,0,0,0,0-.13s0,0,0,0,0,0,0,.06a2.25,2.25,0,0,0,0,.27l.11.66c.17.93.41,1.89.65,2.85l.19.83a2.28,2.28,0,0,1-.11,1.11,2.12,2.12,0,0,1-1.49,1.36,2.14,2.14,0,0,1-.49.05l-.38,0-.75,0c-.5,0-1-.08-1.51-.14.48-.15,1-.28,1.46-.42l.73-.19.36-.09a1.14,1.14,0,0,0,.24-.11,1,1,0,0,0,.44-.75.72.72,0,0,0-.09-.36l0-.08-.08-.16-.18-.34c-.45-.91-.88-1.81-1.28-2.78-.1-.25-.2-.49-.28-.77s-.09-.28-.12-.46a2.49,2.49,0,0,1,0-.31.94.94,0,0,1,0-.1,2.15,2.15,0,0,1,0-.23,1.79,1.79,0,0,1,.85-1.36,3.6,3.6,0,0,1,.59-.33,6.18,6.18,0,0,1,.93-.31,15.33,15.33,0,0,1,1.64-.32l.79-.1.39,0,.2,0h.1s0,0,0,0a.14.14,0,0,0-.15,0,.18.18,0,0,0,0,.08v-.76c0-.53,0-1,.08-1.63,0-.15,0-.3.06-.48a3.75,3.75,0,0,1,.17-.67,2.1,2.1,0,0,1,.53-.84,2.14,2.14,0,0,1,.53-.37,2.2,2.2,0,0,1,.3-.11l.3-.07H354l.21,0h.4c1.18,0,2.12.15,3.14.26l1.37.18a.3.3,0,0,0-.26.13l0,.06h0l0-.09.07-.17a3.39,3.39,0,0,1,.9-1.29,3.31,3.31,0,0,1,3-.75,3.64,3.64,0,0,1,.69.26l.33.17.66.34.17.08s0,0,0,0h0a.09.09,0,0,0-.05,0s0,.08,0,.09h0l0-.09,0-.18,0-.21c0-.12.05-.24.09-.35a3,3,0,0,1,.77-1.24,2.94,2.94,0,0,1,2.63-.77,3,3,0,0,1,.66.22,3,3,0,0,1,.49.3l.59.45,1.13.88a.55.55,0,0,0,.51.14l.16-.05.31-.21.7-.45a2.12,2.12,0,0,1,2-.07C375.61,220.55,376.51,221,377.4,221.49Z"/><path class="cls-4" d="M383.85,228.13c-1-.09-2-.24-3-.38a.94.94,0,0,0-.86.27l-.07.08-.13.14-.25.28-.25.28a2.56,2.56,0,0,1-.46.36,2.51,2.51,0,0,1-2.35.11l-1.4-.69-.67-.33c-.15-.08-.14-.05-.16-.06h-.05a.16.16,0,0,0-.09.14c0,.09.09-.21,0,.66a3.14,3.14,0,0,1-1.78,2.31,3.19,3.19,0,0,1-1.51.29,3.34,3.34,0,0,1-.77-.14l-.35-.13-.17-.07-.69-.29-.34-.14c-.1,0,0,0,0,0a.22.22,0,0,0,.23,0s.08-.1.07-.07l-.06.18,0,.09-.08.18a3.31,3.31,0,0,1-.41.7,3.38,3.38,0,0,1-2.87,1.3l-1.58-.18c-.95-.12-2-.24-2.79-.28h-.11l.21,0,.21-.09a1.57,1.57,0,0,0,.45-.31,1.25,1.25,0,0,0,.35-.52c0-.09,0,0,0,0l0,.26c-.06.4-.09.87-.13,1.33l0,.73a3.31,3.31,0,0,1-.44,1.5,3.19,3.19,0,0,1-2.55,1.58h-1.5a12.75,12.75,0,0,0-1.31.08c-.21,0-.37.06-.51.08s-.1,0-.08,0a1,1,0,0,0,.25-.39.79.79,0,0,0,.07-.26.74.74,0,0,0,0-.13s0,0,0,0,0,0,0,.06a2.25,2.25,0,0,0,0,.27l.11.66c.17.93.41,1.89.65,2.85l.19.83a2.28,2.28,0,0,1-.11,1.11,2.12,2.12,0,0,1-1.49,1.36,2.14,2.14,0,0,1-.49.05l-.38,0-.75,0c-.5,0-1-.08-1.51-.14.48-.15,1-.28,1.46-.42l.73-.19.36-.09a1.14,1.14,0,0,0,.24-.11,1,1,0,0,0,.44-.75.72.72,0,0,0-.09-.36l0-.08-.08-.16-.18-.34c-.45-.91-.88-1.81-1.28-2.78-.1-.25-.2-.49-.28-.77s-.09-.28-.12-.46a2.49,2.49,0,0,1,0-.31.94.94,0,0,1,0-.1,2.15,2.15,0,0,1,0-.23,1.79,1.79,0,0,1,.85-1.36,3.6,3.6,0,0,1,.59-.33,6.18,6.18,0,0,1,.93-.31,15.33,15.33,0,0,1,1.64-.32l.79-.1.39,0,.2,0h.1s0,0,0,0a.14.14,0,0,0-.15,0,.18.18,0,0,0,0,.08v-.76c0-.53,0-1,.08-1.63,0-.15,0-.3.06-.48a3.75,3.75,0,0,1,.17-.67,2.1,2.1,0,0,1,.53-.84,2.14,2.14,0,0,1,.53-.37,2.2,2.2,0,0,1,.3-.11l.3-.07h.11l.21,0h.4c1.18,0,2.12.15,3.14.26l1.37.18a.3.3,0,0,0-.26.13l0,.06h0l0-.09.07-.17a3.39,3.39,0,0,1,.9-1.29,3.31,3.31,0,0,1,3-.75,3.64,3.64,0,0,1,.69.26l.33.17.66.34.17.08s0,0,0,0h0a.09.09,0,0,0-.05,0s0,.08,0,.09h0l0-.09,0-.18,0-.21c0-.12.05-.24.09-.35a3,3,0,0,1,.77-1.24,2.94,2.94,0,0,1,2.63-.77,3,3,0,0,1,.66.22,3,3,0,0,1,.49.3l.59.45,1.13.88a.55.55,0,0,0,.51.14l.16-.05.31-.21.7-.45a2.12,2.12,0,0,1,2-.07C382.06,227.2,383,227.64,383.85,228.13Z"/><path class="cls-4" d="M352.22,192.42c-1,.35-1.91.65-2.87.95a1,1,0,0,0-.67.63l-.08.29-.11.36-.11.36a2.54,2.54,0,0,1-.25.52,2.49,2.49,0,0,1-2.05,1.11h-2.31c-.17,0-.15,0-.18,0l0,0a.18.18,0,0,0,0,.18c0,.1,0-.2.28.62a3.11,3.11,0,0,1-.59,2.83,3.16,3.16,0,0,1-1.22.91,3.32,3.32,0,0,1-.75.21l-.37,0h-.19l-.74,0-.37,0c-.1,0,0,0,0,0a.2.2,0,0,0,.19-.11s0-.12,0-.09l0,.18v.29a3.3,3.3,0,0,1-.07.81,3.37,3.37,0,0,1-2,2.42l-1.5.53c-.9.31-1.88.65-2.62,1l-.1,0,0,0,0,0h0l.17-.14.16-.17a1.58,1.58,0,0,0,.28-.48,1.27,1.27,0,0,0,.09-.62c0-.09,0,0,0,0l.07.25c.12.38.3.82.47,1.25l.28.68a3.35,3.35,0,0,1,.26,1.56,3.23,3.23,0,0,1-1.62,2.57l-1.34.67a12.72,12.72,0,0,0-1.14.64,5,5,0,0,0-.41.29s-.07.06-.06,0a1,1,0,0,0,.07-.49.86.86,0,0,0-.06-.28l-.06-.13h0s0,0,0,0a2.28,2.28,0,0,0,.14.22l.39.54c.56.75,1.21,1.51,1.84,2.26l.55.67a2.42,2.42,0,0,1,.42,1.1,2.27,2.27,0,0,1-.77,2,2.3,2.3,0,0,1-.44.29l-.35.15-.69.29c-.47.18-.93.38-1.41.55a.2.2,0,0,1-.2-.33c.37-.34.76-.66,1.14-1l.58-.48.28-.24a1,1,0,0,0,.14-.18.81.81,0,0,0,0-.74.59.59,0,0,0-.2-.23l-.06,0-.14-.11-.3-.23c-.79-.63-1.57-1.27-2.35-2-.19-.18-.39-.36-.59-.58s-.2-.22-.31-.37a2.63,2.63,0,0,1-.18-.26l-.05-.09a2.27,2.27,0,0,1-.09-.22,1.86,1.86,0,0,1,.18-1.65,3.6,3.6,0,0,1,.4-.56,6.79,6.79,0,0,1,.71-.69,15.4,15.4,0,0,1,1.34-1l.67-.43.34-.2.17-.1.08,0s0,0,0,0a.18.18,0,0,0-.14.13.21.21,0,0,0,0,.11l-.33-.68c-.23-.47-.43-1-.64-1.51-.05-.14-.1-.29-.15-.46a3.8,3.8,0,0,1-.14-.68,2.13,2.13,0,0,1,.11-1A2.16,2.16,0,0,1,331,204a2.23,2.23,0,0,1,.23-.24l.24-.2.1-.06.19-.11.13-.07.23-.11c1.08-.48,2-.78,2.95-1.12l1.32-.43a.29.29,0,0,0-.17.23.32.32,0,0,0,0,.07h0v-.28a3.38,3.38,0,0,1,.25-1.55,3.3,3.3,0,0,1,2.36-2,3.61,3.61,0,0,1,.73-.07h.37l.74,0h.19s0,0,0,0l0,0a.07.07,0,0,0,0,.06s0,.06.06.05,0,0,0,0l0-.09,0-.18,0-.21c0-.12-.05-.24-.07-.35a3,3,0,0,1,.16-1.43,2.88,2.88,0,0,1,2.68-1.91,3.08,3.08,0,0,1,.57.05l.73.15,1.4.3a.58.58,0,0,0,.54-.1.71.71,0,0,0,.12-.12L347,194l.43-.71a2.1,2.1,0,0,1,1.74-.92C350.21,192.37,351.21,192.38,352.22,192.42Z"/><path class="cls-4" d="M346.11,194.34c-1,.24-2,.43-3,.62a1,1,0,0,0-.74.55l-.11.28-.15.35-.15.35a2.54,2.54,0,0,1-.31.49,2.49,2.49,0,0,1-2.16.88l-1.55-.18-.74-.09c-.16,0-.15,0-.18,0l-.05,0a.18.18,0,0,0-.07.18c0,.1,0-.2.21.65a3.11,3.11,0,0,1-.9,2.75,3.16,3.16,0,0,1-1.31.77,3.32,3.32,0,0,1-.77.13h-.56l-.74,0-.37,0c-.1,0,0,0,0,0a.2.2,0,0,0,.2-.09s0-.11,0-.09v.48a3.3,3.3,0,0,1-.16.79,3.37,3.37,0,0,1-2.27,2.18l-1.55.36c-.93.21-1.94.44-2.72.67l-.11,0h0l.19-.12.17-.16a1.58,1.58,0,0,0,.33-.45,1.28,1.28,0,0,0,.16-.61c0-.09,0,0,0,0l0,.26c.08.39.21.85.33,1.3l.2.7a3.35,3.35,0,0,1,.09,1.57,3.23,3.23,0,0,1-1.9,2.38l-1.41.52a12.73,12.73,0,0,0-1.2.51c-.19.09-.33.18-.44.24s-.08.05-.06,0a1,1,0,0,0,.12-.48.85.85,0,0,0,0-.29.79.79,0,0,0,0-.13h0s0,0,0,.05a2.3,2.3,0,0,0,.11.24l.33.58c.48.81,1,1.63,1.58,2.45l.47.73a2.41,2.41,0,0,1,.29,1.14,2.26,2.26,0,0,1-1,1.9,2.3,2.3,0,0,1-.47.24l-.37.11-.72.21c-.49.13-1,.27-1.46.39a.19.19,0,0,1-.16-.34c.41-.3.83-.57,1.24-.86l.63-.41.31-.2a1,1,0,0,0,.16-.16.82.82,0,0,0,.13-.73.59.59,0,0,0-.18-.26l-.06,0-.13-.12-.27-.26c-.72-.71-1.42-1.43-2.11-2.22-.17-.2-.35-.4-.52-.64s-.17-.24-.27-.4a2.67,2.67,0,0,1-.15-.28l0-.09a2.16,2.16,0,0,1-.06-.23,1.85,1.85,0,0,1,.37-1.62,3.59,3.59,0,0,1,.46-.51,6.78,6.78,0,0,1,.78-.61,15.39,15.39,0,0,1,1.44-.85l.71-.35.36-.16.18-.08.09,0s0,0,0,0a.18.18,0,0,0-.15.11.21.21,0,0,0,0,.1l-.25-.72c-.17-.5-.32-1-.46-1.57,0-.15-.07-.3-.1-.47a3.81,3.81,0,0,1-.06-.7,2.13,2.13,0,0,1,.22-1,2.15,2.15,0,0,1,.38-.53,2.22,2.22,0,0,1,.25-.21l.26-.17.1-.05.2-.09.13-.05.24-.09c1.12-.35,2.05-.55,3.05-.79l1.36-.28a.3.3,0,0,0-.2.21.37.37,0,0,0,0,.07h0v-.28a3.38,3.38,0,0,1,.42-1.51,3.3,3.3,0,0,1,2.57-1.69,3.61,3.61,0,0,1,.73,0l.37,0,.74.1.18,0s0,0,0,0l0,0a.07.07,0,0,0,0,.06s0,.07.06.06,0,0,0,0v-.09l0-.19,0-.21c0-.12,0-.24,0-.36a3,3,0,0,1,.32-1.41,2.88,2.88,0,0,1,2.88-1.6,3.09,3.09,0,0,1,.56.11l.71.23,1.36.45a.57.57,0,0,0,.55,0l.14-.11.23-.3.5-.66a2.1,2.1,0,0,1,1.83-.72C344.11,194.06,345.11,194.18,346.11,194.34Z"/><path class="cls-4" d="M338.35,196.12c-1,.14-1.94.24-2.91.33a1.07,1.07,0,0,0-.51.13.87.87,0,0,0-.31.28l-.28.52-.17.32-.09.16a2.53,2.53,0,0,1-.16.23,2.47,2.47,0,0,1-2.08.92,2.94,2.94,0,0,1-.57-.09l-.35-.08-.71-.16-.71-.16-.35-.08c-.11,0-.07,0-.11,0a.17.17,0,0,0-.1.15,0,0,0,0,0,0,0h0s0,0,0,.14,0,.19.06.41a3,3,0,0,1,0,.73,3.13,3.13,0,0,1-.55,1.36,3.2,3.2,0,0,1-2.56,1.35,2.42,2.42,0,0,1-.38,0l-.3,0-.36-.06-.71-.11-.18,0c-.06,0,0,0,0,0h.06a.18.18,0,0,0,.11,0,.28.28,0,0,0,.09-.08l0-.06s0,0,0,0l0,.15,0,.21a3.41,3.41,0,0,1-.36,1.12,3.36,3.36,0,0,1-1,1.18,3.4,3.4,0,0,1-1.47.58l-.76.09c-.94.12-1.89.22-2.78.36l-.62.11-.2,0h0l0,0,.19-.1.2-.15a1.57,1.57,0,0,0,.35-.41,1.93,1.93,0,0,0,.13-.26,1.18,1.18,0,0,0,.05-.17c.05-.23,0-.19,0-.14a2.17,2.17,0,0,0,0,.22c0,.18,0,.39.07.61l.21,1.34,0,.19a3.37,3.37,0,0,1,0,.38,3.26,3.26,0,0,1-.61,2.16,3.19,3.19,0,0,1-1.15,1,3.25,3.25,0,0,1-.67.25l-.33.08-1.3.33a9.35,9.35,0,0,0-1.15.39c-.15.06-.29.15-.28.11a1.09,1.09,0,0,0,.15-.39,1,1,0,0,0,0-.45s0,0,0,0a9.77,9.77,0,0,0,.47,1.15c.2.42.41.84.62,1.27l.66,1.27.18.36a1.49,1.49,0,0,1,.19.77,2.15,2.15,0,0,1-.34,1,4.94,4.94,0,0,1-1.13,1.24,4.26,4.26,0,0,1-1.46.8.45.45,0,0,1-.37-.82l.07,0a4.31,4.31,0,0,0,1.56-1.85c.06-.16.07-.32,0-.33s0,0,0,.08l-.22-.24c-.33-.36-.63-.75-.94-1.13s-.61-.77-.91-1.18a8.54,8.54,0,0,1-.89-1.39,3,3,0,0,1-.12-.29,1.73,1.73,0,0,1-.05-.81,2.06,2.06,0,0,1,.51-1,4.08,4.08,0,0,1,.89-.72,11.65,11.65,0,0,1,1.5-.76c.48-.21,1-.39,1.44-.55l.36-.12s0,0,0,0l-.08,0a.17.17,0,0,0-.05.06v0s0,0,0,0l0-.16c-.12-.49-.25-1-.34-1.49,0-.26-.09-.53-.13-.82s0-.3,0-.5a3,3,0,0,1,.07-.85c0-.08,0-.17.08-.25a1.62,1.62,0,0,1,.16-.34,2.14,2.14,0,0,1,.4-.48,1.8,1.8,0,0,1,.28-.2l.27-.14.13-.05.2-.07.5-.13.8-.15c1-.16,2-.3,2.94-.4l.68-.07a.33.33,0,0,0-.14.06.27.27,0,0,0-.09.11l0,.07v0l0-.15,0-.21a3.45,3.45,0,0,1,.08-.38,3.28,3.28,0,0,1,.3-.73,3.33,3.33,0,0,1,1-1.15,3.28,3.28,0,0,1,1.45-.54,3.37,3.37,0,0,1,.78,0l.35.06.18,0,.7.16.35.08.06,0h0c-.06,0-.08.08-.07.1a.11.11,0,0,0,0,0h0a3,3,0,0,0,0-.31c0-.07,0-.35,0-.58a3.2,3.2,0,0,1,.14-.7,3,3,0,0,1,.74-1.19,2.9,2.9,0,0,1,3.11-.64l.33.14.66.29.66.29.33.15.13.07a.6.6,0,0,0,.53,0l.07,0,.12-.13.25-.27.25-.27a2.83,2.83,0,0,1,.36-.35,2.19,2.19,0,0,1,.93-.43,2.1,2.1,0,0,1,.92,0C336.45,195.65,337.41,195.86,338.35,196.12Z"/></g></svg>