<svg xmlns="http://www.w3.org/2000/svg" xmlns:xlink="http://www.w3.org/1999/xlink" viewBox="0 0 650 650"><defs><style>.cls-1{fill:url(#Безымянный_градиент_263);}.cls-2{fill:url(#Безымянный_градиент_170);}.cls-3{fill:#fff;}.cls-4{fill:#e9ecf5;}.cls-20,.cls-21,.cls-22,.cls-30,.cls-31,.cls-32,.cls-33,.cls-34,.cls-35,.cls-36,.cls-37,.cls-38,.cls-39,.cls-40,.cls-41,.cls-42,.cls-43,.cls-5,.cls-6{fill:none;stroke-linecap:round;stroke-miterlimit:10;}.cls-5,.cls-6{stroke-width:9.53px;}.cls-5{stroke:url(#Безымянный_градиент_263-2);}.cls-6{stroke:url(#Безымянный_градиент_263-3);}.cls-7{fill:#d5527e;}.cls-8{fill:url(#Безымянный_градиент_123);}.cls-9{fill:#191337;}.cls-10{fill:url(#Безымянный_градиент_123-2);}.cls-11{fill:url(#Безымянный_градиент_3);}.cls-12{fill:url(#Безымянный_градиент_123-3);}.cls-13{fill:url(#Безымянный_градиент_123-4);}.cls-14{fill:#201f4f;}.cls-15{fill:url(#Безымянный_градиент_123-5);}.cls-16{fill:url(#Безымянный_градиент_123-6);}.cls-17{fill:url(#Безымянный_градиент_123-7);}.cls-18{fill:url(#Безымянный_градиент_139);}.cls-19{fill:url(#Безымянный_градиент_123-8);}.cls-20,.cls-21,.cls-22,.cls-30,.cls-31,.cls-32,.cls-33,.cls-34,.cls-35,.cls-36,.cls-37,.cls-38,.cls-39,.cls-40,.cls-41,.cls-42,.cls-43{stroke-width:5.46px;}.cls-20{stroke:url(#Безымянный_градиент_139-2);}.cls-21{stroke:url(#Безымянный_градиент_139-3);}.cls-22{stroke:url(#Безымянный_градиент_139-4);}.cls-23{fill:url(#Безымянный_градиент_29);}.cls-24{fill:url(#Безымянный_градиент_29-2);}.cls-25{fill:url(#Безымянный_градиент_48);}.cls-26{fill:url(#Безымянный_градиент_123-9);}.cls-27{fill:url(#Безымянный_градиент_140);}.cls-28{fill:url(#Безымянный_градиент_48-2);}.cls-29{fill:url(#Безымянный_градиент_157);}.cls-30{stroke:url(#Безымянный_градиент_139-5);}.cls-31{stroke:url(#Безымянный_градиент_139-6);}.cls-32{stroke:url(#Безымянный_градиент_139-7);}.cls-33{stroke:url(#Безымянный_градиент_139-8);}.cls-34{stroke:url(#Безымянный_градиент_139-9);}.cls-35{stroke:url(#Безымянный_градиент_139-10);}.cls-36{stroke:url(#Безымянный_градиент_139-11);}.cls-37{stroke:url(#Безымянный_градиент_139-12);}.cls-38{stroke:url(#Безымянный_градиент_39);}.cls-39{stroke:url(#Безымянный_градиент_39-2);}.cls-40{stroke:url(#Безымянный_градиент_39-3);}.cls-41{stroke:url(#Безымянный_градиент_139-13);}.cls-42{stroke:url(#Безымянный_градиент_38);}.cls-43{stroke:url(#Безымянный_градиент_37);}.cls-44{fill:url(#Безымянный_градиент_171);}.cls-45{fill:url(#Безымянный_градиент_2);}.cls-46{fill:url(#Безымянный_градиент_123-10);}</style><linearGradient id="Безымянный_градиент_263" x1="80.41" y1="344.61" x2="606.35" y2="344.61" gradientUnits="userSpaceOnUse"><stop offset="0" stop-color="#f0f2f5"/><stop offset="0.99" stop-color="#f5f7f8"/></linearGradient><linearGradient id="Безымянный_градиент_170" x1="56.22" y1="242.77" x2="419.55" y2="242.77" gradientUnits="userSpaceOnUse"><stop offset="0.01" stop-color="#bbbfd9"/><stop offset="1" stop-color="#d6dbf8"/></linearGradient><linearGradient id="Безымянный_градиент_263-2" x1="295.39" y1="275.4" x2="396.08" y2="275.4" xlink:href="#Безымянный_градиент_263"/><linearGradient id="Безымянный_градиент_263-3" x1="295.39" y1="311.21" x2="396.08" y2="311.21" xlink:href="#Безымянный_градиент_263"/><linearGradient id="Безымянный_градиент_123" x1="-822.81" y1="575.35" x2="-794.36" y2="575.35" gradientTransform="translate(1493.47 268.73) rotate(18.56)" gradientUnits="userSpaceOnUse"><stop offset="0" stop-color="#753200"/><stop offset="1" stop-color="#a04400"/></linearGradient><linearGradient id="Безымянный_градиент_123-2" x1="-876.38" y1="593.34" x2="-847.93" y2="593.34" xlink:href="#Безымянный_градиент_123"/><linearGradient id="Безымянный_градиент_3" x1="105.76" y1="383.28" x2="181.09" y2="383.28" gradientUnits="userSpaceOnUse"><stop offset="0.09" stop-color="#d9d9d9"/><stop offset="0.12" stop-color="#d6d6d6"/><stop offset="0.7" stop-color="#aeaeae"/><stop offset="1" stop-color="#9f9f9f"/></linearGradient><linearGradient id="Безымянный_градиент_123-3" x1="149.78" y1="484.63" x2="128.7" y2="494.19" gradientTransform="matrix(1, 0, 0, 1, 0, 0)" xlink:href="#Безымянный_градиент_123"/><linearGradient id="Безымянный_градиент_123-4" x1="111.94" y1="490.08" x2="166.42" y2="490.08" gradientTransform="matrix(1, 0, 0, 1, 0, 0)" xlink:href="#Безымянный_градиент_123"/><linearGradient id="Безымянный_градиент_123-5" x1="97.47" y1="314.18" x2="114.05" y2="314.18" gradientTransform="matrix(1, 0, 0, 1, 0, 0)" xlink:href="#Безымянный_градиент_123"/><linearGradient id="Безымянный_градиент_123-6" x1="209.94" y1="229.3" x2="234.46" y2="229.3" gradientTransform="matrix(1, 0, 0, 1, 0, 0)" xlink:href="#Безымянный_градиент_123"/><linearGradient id="Безымянный_градиент_123-7" x1="122.53" y1="196.55" x2="171.81" y2="196.55" gradientTransform="matrix(1, 0, 0, 1, 0, 0)" xlink:href="#Безымянный_градиент_123"/><linearGradient id="Безымянный_градиент_139" x1="84.82" y1="161.07" x2="179.86" y2="161.07" gradientUnits="userSpaceOnUse"><stop offset="0" stop-color="#201f4f"/><stop offset="0.26" stop-color="#27275a"/><stop offset="0.72" stop-color="#393c76"/><stop offset="1" stop-color="#464b8b"/></linearGradient><linearGradient id="Безымянный_градиент_123-8" x1="-1001.35" y1="72.51" x2="-935.74" y2="72.51" gradientTransform="matrix(0.64, 0.76, -0.76, 0.64, 1044.24, 936.35)" xlink:href="#Безымянный_градиент_123"/><linearGradient id="Безымянный_градиент_139-2" x1="551.1" y1="385.76" x2="598.82" y2="385.76" gradientTransform="translate(-146.44 -106.45) rotate(-9.77)" xlink:href="#Безымянный_градиент_139"/><linearGradient id="Безымянный_градиент_139-3" x1="558.24" y1="386.99" x2="605.97" y2="386.99" gradientTransform="translate(-146.44 -106.45) rotate(-9.77)" xlink:href="#Безымянный_градиент_139"/><linearGradient id="Безымянный_градиент_139-4" x1="542.71" y1="381.67" x2="590.43" y2="381.67" gradientTransform="translate(-146.44 -106.45) rotate(-9.77)" xlink:href="#Безымянный_градиент_139"/><linearGradient id="Безымянный_градиент_29" x1="-2069.35" y1="212.75" x2="-2057.83" y2="149.57" gradientTransform="matrix(-1, 0, 0, 1, -1560.41, 0)" gradientUnits="userSpaceOnUse"><stop offset="0.28" stop-color="#201f4f"/><stop offset="1" stop-color="#201f4f"/></linearGradient><linearGradient id="Безымянный_градиент_29-2" x1="-2112.72" y1="174.43" x2="-2045.15" y2="143.15" xlink:href="#Безымянный_градиент_29"/><linearGradient id="Безымянный_градиент_48" x1="-1281" y1="280.51" x2="-1304.67" y2="303.73" gradientTransform="translate(1831.61 193.54) rotate(12.28)" gradientUnits="userSpaceOnUse"><stop offset="0" stop-color="#a04400"/><stop offset="1" stop-color="#753200"/></linearGradient><linearGradient id="Безымянный_градиент_123-9" x1="-2033.68" y1="203.25" x2="-2089.48" y2="190.82" gradientTransform="matrix(-1, 0, 0, 1, -1560.41, 0)" xlink:href="#Безымянный_градиент_123"/><linearGradient id="Безымянный_градиент_140" x1="-2047.71" y1="161.07" x2="-2079.06" y2="175.97" gradientTransform="matrix(-1, 0, 0, 1, -1560.41, 0)" gradientUnits="userSpaceOnUse"><stop offset="0.1" stop-color="#753200"/><stop offset="0.48" stop-color="#8a3b00" stop-opacity="0.52"/><stop offset="0.82" stop-color="#9a4100" stop-opacity="0.14"/><stop offset="1" stop-color="#a04400" stop-opacity="0"/></linearGradient><linearGradient id="Безымянный_градиент_48-2" x1="-2084.9" y1="194.68" x2="-2057.04" y2="210.15" gradientTransform="matrix(-1, 0, 0, 1, -1560.41, 0)" xlink:href="#Безымянный_градиент_48"/><linearGradient id="Безымянный_градиент_157" x1="-1281.06" y1="263.98" x2="-1284.11" y2="266.98" gradientTransform="translate(1831.61 193.54) rotate(12.28)" gradientUnits="userSpaceOnUse"><stop offset="0" stop-color="#a96e46"/><stop offset="1" stop-color="#ffd0b9"/></linearGradient><linearGradient id="Безымянный_градиент_139-5" x1="-2109.78" y1="168.76" x2="-2062.05" y2="168.76" gradientTransform="matrix(-1, 0, 0, 1, -1560.41, 0)" xlink:href="#Безымянный_градиент_139"/><linearGradient id="Безымянный_градиент_139-6" x1="-2103.54" y1="176.01" x2="-2055.81" y2="176.01" gradientTransform="matrix(-1, 0, 0, 1, -1560.41, 0)" xlink:href="#Безымянный_градиент_139"/><linearGradient id="Безымянный_градиент_139-7" x1="-2117.45" y1="170.93" x2="-2069.73" y2="170.93" gradientTransform="matrix(-1, 0, 0, 1, -1560.41, 0)" xlink:href="#Безымянный_градиент_139"/><linearGradient id="Безымянный_градиент_139-8" x1="-2230.32" y1="269.24" x2="-2182.25" y2="269.24" gradientTransform="matrix(-1, 0.08, 0.08, 1, -1685.56, 83.16)" xlink:href="#Безымянный_градиент_139"/><linearGradient id="Безымянный_градиент_139-9" x1="-2105.47" y1="168.76" x2="-2058.33" y2="168.76" gradientTransform="matrix(-1, 0, 0, 1, -1560.41, 0)" xlink:href="#Безымянный_градиент_139"/><linearGradient id="Безымянный_градиент_139-10" x1="-2081.24" y1="150.78" x2="-2053.9" y2="150.78" gradientTransform="matrix(-1, 0, 0, 1, -1560.41, 0)" xlink:href="#Безымянный_градиент_139"/><linearGradient id="Безымянный_градиент_139-11" x1="-2097.25" y1="174.02" x2="-2063.01" y2="174.02" gradientTransform="matrix(-1, 0, 0, 1, -1560.41, 0)" xlink:href="#Безымянный_градиент_139"/><linearGradient id="Безымянный_градиент_139-12" x1="-2088.65" y1="174.02" x2="-2054.41" y2="174.02" gradientTransform="matrix(-1, 0, 0, 1, -1560.41, 0)" xlink:href="#Безымянный_градиент_139"/><linearGradient id="Безымянный_градиент_39" x1="-2054.67" y1="166.9" x2="-2021.56" y2="166.9" gradientTransform="matrix(-1, 0, 0, 1, -1560.41, 0)" gradientUnits="userSpaceOnUse"><stop offset="0" stop-color="#464b8b"/><stop offset="0.28" stop-color="#393c76"/><stop offset="0.74" stop-color="#27275a"/><stop offset="1" stop-color="#201f4f"/></linearGradient><linearGradient id="Безымянный_градиент_39-2" x1="-1943.39" y1="76.33" x2="-1906.62" y2="76.33" gradientTransform="matrix(-1, -0.08, -0.08, 1, -1439.43, -62.53)" xlink:href="#Безымянный_градиент_39"/><linearGradient id="Безымянный_градиент_39-3" x1="-2052.38" y1="151.95" x2="-2030.06" y2="151.95" xlink:href="#Безымянный_градиент_39"/><linearGradient id="Безымянный_градиент_139-13" x1="-2077.45" y1="156.99" x2="-2047.13" y2="156.99" gradientTransform="matrix(-1, 0, 0, 1, -1560.41, 0)" xlink:href="#Безымянный_градиент_139"/><linearGradient id="Безымянный_градиент_38" x1="-2063.79" y1="152.9" x2="-2040.14" y2="152.9" gradientTransform="matrix(-1, 0, 0, 1, -1560.41, 0)" gradientUnits="userSpaceOnUse"><stop offset="0" stop-color="#201f4f"/><stop offset="0.12" stop-color="#252558"/><stop offset="0.7" stop-color="#3d417d"/><stop offset="1" stop-color="#464b8b"/></linearGradient><linearGradient id="Безымянный_градиент_37" x1="-2089.65" y1="166.83" x2="-2038.08" y2="166.83" gradientTransform="matrix(-1, 0, 0, 1, -1560.41, 0)" gradientUnits="userSpaceOnUse"><stop offset="0" stop-color="#201f4f"/><stop offset="0.23" stop-color="#303168"/><stop offset="0.48" stop-color="#3c407b"/><stop offset="0.74" stop-color="#444887"/><stop offset="1" stop-color="#464b8b"/></linearGradient><linearGradient id="Безымянный_градиент_171" x1="504.46" y1="284.31" x2="534.05" y2="284.31" gradientUnits="userSpaceOnUse"><stop offset="0" stop-color="#d5527e"/><stop offset="1" stop-color="#ff6297"/></linearGradient><linearGradient id="Безымянный_градиент_2" x1="523.52" y1="345.64" x2="521.21" y2="326.76" gradientUnits="userSpaceOnUse"><stop offset="0" stop-color="#ff6297"/><stop offset="1" stop-color="#d5527e"/></linearGradient><linearGradient id="Безымянный_градиент_123-10" x1="468.05" y1="303.3" x2="509.21" y2="303.3" gradientTransform="matrix(1, 0, 0, 1, 0, 0)" xlink:href="#Безымянный_градиент_123"/></defs><title>1</title><g id="_01" data-name="01"><path class="cls-1" d="M588.39,355.09C542.21,260.67,410.11,122.38,238.47,122,59.35,121.65,42,299.3,138.57,348.67S94,459.6,194.86,521.45C297,584,515.26,578.16,569,529.47S608.35,395.88,588.39,355.09Z"/><rect class="cls-2" x="56.22" y="122.03" width="363.33" height="241.5" rx="12.98" ry="12.98"/><rect class="cls-3" x="66.56" y="132.39" width="342.66" height="220.78" rx="7.75" ry="7.75"/><rect class="cls-4" x="112.53" y="155.35" width="163.04" height="86.87" rx="8.1" ry="8.1"/><rect class="cls-4" x="112.53" y="265.4" width="163.04" height="23.66" rx="11.83" ry="11.83"/><rect class="cls-4" x="112.53" y="299.38" width="163.04" height="23.66" rx="11.83" ry="11.83"/><path class="cls-4" d="M336.53,147.31h-.21a43.31,43.31,0,0,0-43.31,43h43.52Z"/><path class="cls-4" d="M300.16,198.71c0,.09,0,.18,0,.27a43.32,43.32,0,0,0,43.32,43.32h.21V198.71Z"/><path class="cls-4" d="M343.68,155.67v43h43.1A43.31,43.31,0,0,0,343.68,155.67Z"/><path class="cls-4" d="M343.68,198.71v43.59A43.31,43.31,0,0,0,386.79,199c0-.09,0-.18,0-.27Z"/><line class="cls-5" x1="300.16" y1="275.4" x2="391.31" y2="275.4"/><line class="cls-6" x1="300.16" y1="311.21" x2="391.31" y2="311.21"/><path class="cls-7" d="M478.17,277.23S444.34,302,449.1,328.85s28.61,34.55,28.61,34.55l17.94-31.5-20-44.4"/><path class="cls-8" d="M557.88,559.57a82.18,82.18,0,0,1-10.12,9.13c-3.41,2.31-13.51,4.08-22.38-1.71a13.91,13.91,0,0,0,8.18-7c2.89-5.62,5.05-8.64,5.82-14.36s15.85-2.26,15.85-2.26S554.62,555.92,557.88,559.57Z"/><path class="cls-9" d="M557.6,556.67a38.89,38.89,0,0,1-10.91,8c-3.75,1.72-8.72,4.14-18,.45a2.82,2.82,0,0,1-.48-.32s-12.22,5.07-12.77,5.58c-1.15,1.06-3,3.47-1.36,6.09.87,1.38,9.76,1.8,15.47,1.63,5.28-.16,25.19-6.12,25.19-6.12C561.72,568.5,560.67,563.77,557.6,556.67Z"/><path class="cls-10" d="M501.37,559.57a82.18,82.18,0,0,1-10.12,9.13c-3.41,2.31-13.51,4.08-22.38-1.71a13.91,13.91,0,0,0,8.18-7c2.89-5.62,5.05-8.64,5.82-14.36s15.85-2.26,15.85-2.26S498.11,555.92,501.37,559.57Z"/><path class="cls-9" d="M500.94,557.09a39.12,39.12,0,0,1-10.76,7.59c-3.75,1.72-8.72,4.14-18,.45a2.82,2.82,0,0,1-.48-.32s-12.22,5.07-12.77,5.58c-1.15,1.06-3,3.47-1.36,6.09.87,1.38,9.76,1.8,15.47,1.63,5.28-.16,25.19-6.12,25.19-6.12C505.21,568.5,504,564.19,500.94,557.09Z"/><path class="cls-11" d="M171.16,433.73c-1.6,1.07-3.19,2-4.74,2.88-12.79,7.12-23.69,7.6-32.11,5.67a40.54,40.54,0,0,1-16-7.73,48,48,0,0,0-6.38-3.86s-6.18-53.6-6.18-72.75c0-13.93,5.9-28.82,7.92-33.54,9.89,2.92,34.57,8.4,56.74-1.09C190,359.27,177.92,406.81,171.16,433.73Z"/><path class="cls-12" d="M147.32,480.63h0c2.36-13.35-18.47-33.93-13-38.34a40.54,40.54,0,0,1-16-7.73c-.91,8.32-2,22.67-.31,35.07,0-.07,11.63,45.84,14.31,46.86,6.24,17.42,13.5,32.63,13.5,32.63l9.54-2.66S151.13,508,147.32,480.63Z"/><path class="cls-13" d="M166.42,436.61c0,15.27-15.83,18.61-34.55,78.61h0c-4.82,15.39-10.39,28.32-10.39,28.32l-9.55-3.18s0-.46.07-1.31h0c1.71-31.89-1.79-77.29,22.3-96.77C142.73,444.22,153.63,443.73,166.42,436.61Z"/><path class="cls-14" d="M224.8,266.42s-9.57,20.44-20.75,24.91-34.5-19.87-34.5-19.87-7.55,11.69-6.66,20.43,5.52,25,12.87,34.28c-26.15,18.44-69.89,2.52-69.89,2.52L114,310.86l2.66-16.17L110,272.08,97.73,292.6l11.49,11.5-1.17,1.45L97.47,318.78l-1,1.28s-21.71-14.37-22-22.95,22-50.57,26.26-59.66c2.93-6.18,11.05-11.35,23.33-14a92.78,92.78,0,0,1,20-1.84,30.54,30.54,0,0,1,4.48.37c26.77,4.09,48.84,41.22,48.84,41.22l9.26-13.41,3.35,3,11.74,10.7Z"/><path class="cls-15" d="M114,310.86l-4.77,11.95a92.53,92.53,0,0,1-11.8-4l10.58-13.23Z"/><path class="cls-16" d="M233.23,232.77c-1.26,3.23-8.16,21.73-11.54,30.8l-11.74-10.7c4-5.55,13.06-18.12,13.34-21.41.36-4.19-1.8-2.64-2.87-6.23s-5.75-11.13-6.23-14.37.16-4.19,1.52-3.71,4,8,5.91,7.31,1.75-6.95,1.72-8-4.83-8.44-1.52-11.12a1.36,1.36,0,0,1,2.09.59c1.06,2.61,2.67,7.06,2.67,7.06s.54-.83,2.33.37.23,1.57,2.74,3,1.94,1.9,2.41,5.61S234.9,228.46,233.23,232.77Z"/><path class="cls-17" d="M169.55,171.69c6.42,14.08-2.49,27.53-6.27,29.84-5.78,3.54-9.69,3.13-12.5,8.2-1.85,3.32-.74,7.65.57,12.8a35.94,35.94,0,0,0-5.27-.43,109.18,109.18,0,0,0-23.55,2.16l2.67-15.43c1,.18,4.79.83,5.66.87,5.35.29,14.94-1.12,14.22-6.76s4-4.5,7.57-8.45,4.13-5.92,1.88-11.27-2.54-5.36.28-7.9a25.16,25.16,0,0,0,4.79-6.48c1.69,3.67,2.54,8.74,5.36,7.61S167.66,171.46,169.55,171.69Z"/><path class="cls-18" d="M178.49,162.92c-3.38,4.23-2.54,3.67-3.95,5.92s-3.1,3.1-5,2.86h0c-1.89-.23-1.77,3.63-4.58,4.75s-3.67-3.94-5.36-7.61a25.16,25.16,0,0,1-4.79,6.48c-2.81,2.54-2.54,2.54-.28,7.9s1.69,7.32-1.88,11.27-8.27,2.81-7.57,8.45-8.88,7.05-14.22,6.76a24.86,24.86,0,0,1-2.9-.34c-5.28-.87-12-3-14.86-2.75-3.38.28-9.58-3.1-11.27-7.62s-5.92-5.07-8.45-7-1.69-5.64-.57-11.83-3.38-5.07-6.76-7.05.85-5.35,3.95-11.27-3.95-4.79-3.95-9.59,4.23-4.78,7.61-5.92,2-7.89,5.07-13.25,11-.28,10.71-6.48,1.69-5.35,5.92-6.76,2.71.05,7.16-5c5.58-6.3,11.11,1.75,19.85,1.47s6.52-1.28,11.59.41,7.62,9.58,9.31,12.4,8.73,2.81,10.14,5.07.85,8.73,3.1,11.54,5.07,3.39,2,6.21S181.87,158.69,178.49,162.92Z"/><path class="cls-14" d="M175.62,578.2l-.05,0c-1.52-.84-12-6.63-16.46-10s-10.57-3.27-13.83-.81a5.68,5.68,0,0,0-.89.81c-1.52-6.6-.63-14.17.22-18.82l11.8-3.28a120.72,120.72,0,0,0,5,13.48C164.86,567.38,174.41,577,175.62,578.2Z"/><path class="cls-14" d="M175.56,578.24c-10,6.56-19.61-.78-19.61-.78l.91,4h-7.56s-.74-2-1.34-3.15c-1.52-3-3.23-7.09-3.62-10.17,3.75-3.89,10.41-3.14,14.75.12S174,577.39,175.56,578.24Z"/><path class="cls-14" d="M142,580.85s-3.24.3-8.67.44h0l-1.73,0c-6.46.11-8-6.59-10.54-13.41s-12.78-12.45-18.06-8.75c.15-.84.31-1.53.43-2l.05-.21c.14-.56.24-.87.24-.87,1.86-6.25,5.07-13.86,7.33-17.43,0,.85,11.48,5.28,11.48,5.28A47.08,47.08,0,0,0,125.94,557c1.8,4.55,9.21,20,12.69,20.11S142,580.85,142,580.85Z"/><path class="cls-14" d="M133.29,581.28a63.29,63.29,0,0,1-14.08-.56c-1.69-.47-1.42-6.46-3.81-6.82s-2,6.82-2,6.82H102.19a74.65,74.65,0,0,0,0-11,46.3,46.3,0,0,1,.74-10.55c5.28-3.7,15.55,1.93,18.06,8.75s4.07,13.52,10.54,13.41Z"/><path class="cls-19" d="M400.38,251.6,364.87,247l-12.35-13a5.33,5.33,0,0,0-3.27-1.84c-3.53-.54-11.56-1-11.88-1.1s-5.43-.58-8.7-.9a.81.81,0,0,0-.55,1.46c2.08,1.5,5.36,3.42,8.31,3.24a11.84,11.84,0,0,1,8.27,2.56c.24.29,4.37,3.65,3,4.32s-5.6-2.78-6.12-2.82-5.63-3.24-6.63-.93,9.82,7.12,11.74,8.67,3.15,5.34,5.32,6.76,37.4,11,37.4,11Z"/><path class="cls-7" d="M370.1,262.53l73.27,18.94S502,256.73,511.6,248.13s-23.55-20.73-23.55-20.73L438.5,262.35l-68.68-20.07Z"/><path class="cls-14" d="M483.47,330.54C469.8,371.53,472.31,450,472.31,450l8,99.37h21.35a462.52,462.52,0,0,0,.8-75.67,250.06,250.06,0,0,1,.85-48.53l4.42-37.91,10.68,67.22,17.63,94.89h21.78c.49-12.14-1.8-38.07-6.56-68.22a219.91,219.91,0,0,1-1.84-55.35c2.23-23.18,1.08-39.75-.65-52.15-4.41-31.7-19.67-48.52-19.67-48.52Z"/><path class="cls-7" d="M541.75,341.18l-6.66-15.62a38.52,38.52,0,0,1-1.88-24.75c3.92-15.19,9.49-40.74,6.85-54.94a60.73,60.73,0,0,0-3.56-12,28.38,28.38,0,0,0-32.23-17l-1.24.27a23.92,23.92,0,0,0-16.21,12.38c-4.08,7.9-10.48,18.74-13.76,25.95-1.46,3.21-4.47,10.83-4.27,13.89.16,2.45,3.74,7.79,3.62,9.93-1.45,25.37-19.73,38.1-6.23,74.22C474.94,377,516.18,355.35,541.75,341.18Z"/><path class="cls-7" d="M501.18,316.51,540,327.44A12.4,12.4,0,0,0,555.7,314c-3.61-28.82-11.08-81.8-18-88-9.54-8.64-20.39,4.31-20.39,4.31l19.12,76.95-32-6.82Z"/><path class="cls-20" d="M500.23,136.27,494,135a1.57,1.57,0,0,0-1.72.84l-2.24,4.5a1.57,1.57,0,0,1-1.14.85l-3.48.6a1.57,1.57,0,0,0-1.3,1.65l.27,4.13a1.57,1.57,0,0,1-1.3,1.65l-3.14.54a1.57,1.57,0,0,0-1.3,1.62l.17,3.4a1.57,1.57,0,0,1-.74,1.41l-3.77,2.33a1.57,1.57,0,0,0-.35,2.37l2.42,2.76a1.57,1.57,0,0,1-.27,2.31l-4.3,3a1.57,1.57,0,0,0-.45,2.07l1.86,3.18a1.57,1.57,0,0,1-.15,1.8l-2.24,2.66a1.57,1.57,0,0,0,.32,2.31l2.36,1.6a1.57,1.57,0,0,1,.39,2.22l-3.68,5.09a1.57,1.57,0,0,0,.11,2l2.25,2.5a1.57,1.57,0,0,1,.07,2l-3.47,4.4a1.57,1.57,0,0,0,0,2l3.3,4a1.57,1.57,0,0,1,.07,1.91l-1.83,2.56a1.57,1.57,0,0,0-.09,1.68l1.6,2.83c.11.2-.16.69-.19,1.33a9.19,9.19,0,0,0,0,1.24"/><path class="cls-21" d="M507.48,136.27,501.26,135a1.57,1.57,0,0,0-1.72.84l-2.24,4.5a1.57,1.57,0,0,1-1.14.85l-3.48.6a1.57,1.57,0,0,0-1.3,1.65l.27,4.13a1.57,1.57,0,0,1-1.3,1.65l-3.14.54a1.57,1.57,0,0,0-1.3,1.62l.17,3.4a1.57,1.57,0,0,1-.74,1.41l-3.77,2.33a1.57,1.57,0,0,0-.35,2.37l2.42,2.76a1.57,1.57,0,0,1-.27,2.31l-4.3,3a1.57,1.57,0,0,0-.45,2.07l1.86,3.18a1.57,1.57,0,0,1-.15,1.8l-2.24,2.66a1.57,1.57,0,0,0,.32,2.31l2.36,1.6a1.57,1.57,0,0,1,.39,2.22l-3.68,5.09a1.57,1.57,0,0,0,.11,2l2.25,2.5a1.57,1.57,0,0,1,.07,2l-3.47,4.4a1.57,1.57,0,0,0,0,2l3.3,4a1.57,1.57,0,0,1,.07,1.91L478,211.21a1.57,1.57,0,0,0-.09,1.68l1.6,2.83c.11.2-.16.69-.19,1.33a9.19,9.19,0,0,0,0,1.24"/><path class="cls-22" d="M491.26,133.67,485,132.38a1.57,1.57,0,0,0-1.72.84l-2.24,4.5a1.57,1.57,0,0,1-1.14.85l-3.48.6a1.57,1.57,0,0,0-1.3,1.65l.27,4.13a1.57,1.57,0,0,1-1.3,1.65l-3.14.54a1.57,1.57,0,0,0-1.3,1.62l.17,3.4a1.57,1.57,0,0,1-.74,1.41l-3.77,2.33a1.57,1.57,0,0,0-.35,2.37l2.42,2.76a1.57,1.57,0,0,1-.27,2.31l-4.3,3a1.57,1.57,0,0,0-.45,2.07l1.86,3.18a1.57,1.57,0,0,1-.15,1.8l-2.24,2.66a1.57,1.57,0,0,0,.32,2.31l2.36,1.6a1.57,1.57,0,0,1,.39,2.22l-3.68,5.09a1.57,1.57,0,0,0,.11,2l2.25,2.5a1.57,1.57,0,0,1,.07,2l-3.47,4.4a1.57,1.57,0,0,0,0,2l3.3,4a1.57,1.57,0,0,1,.07,1.91l-1.83,2.56a1.57,1.57,0,0,0-.09,1.68l1.6,2.83c.11.2-.16.69-.19,1.33a9.19,9.19,0,0,0,0,1.24"/><path class="cls-23" d="M477.82,150.37c21-18.41,52.39-7.55,59.77,15.55,16.73,52.38-43.67,53.26-50.64,55.82C462.54,205,459.82,167.54,477.82,150.37Z"/><path class="cls-24" d="M471.42,159.87c.11,1.27.27,2.53.45,3.77,1.68-6.45,12.7-13.77,25.17-12.63,0,0,0,1.51,2.35,1.93s3.38-2.51,3.91,0,.52,5.89,3.38,5.89,4.7,1.82,5,3.65-4.59,8.38-2.16,10c2.78,1.84,4.79,8.73,4.79,8.73s2.17-16,10.79-6.63c.61,1.72,1.12,3.45,1.55,5.18a6,6,0,0,0-1.63-5.71,5.22,5.22,0,0,0-1.31-.87A44.66,44.66,0,0,0,525.76,160c0-2.46,5.56-11.5,4.9-14-3.41-13.16-26.35-21.08-37.45-20.32S470.36,147.53,471.42,159.87Z"/><path class="cls-25" d="M519.76,196.26a38.51,38.51,0,0,1-27.65,16.67l.08-1.48.09-1.82c7.93-2.34,17.42-7.83,28.46-19.33l-.24.27a38.84,38.84,0,0,0-.68,4.92C519.81,195.74,519.78,196,519.76,196.26Z"/><path class="cls-26" d="M470.81,192.18c2.48,10.79,12.49,15.7,19,17.08.62.12,1.21.22,1.75.28.26,0,.51.07.75.09l-.09,1.82-.17,2.32-.14,2.06-.62,33.71c-.58,2.43,25.8-27,26-30.23,0,0,1-5,2.26-20.09.08-.95.16-1.93.25-3,0-.26.05-.52.07-.76,0-.51.11-1.12.18-1.74a22.75,22.75,0,0,1,.49-3.19,2.29,2.29,0,0,0,.24-.27c3.62-4.09,5.44-7.67,5.87-10.53-.25-1-.53-2-.83-3a7.68,7.68,0,0,0-3.21-4.34c-6.56-4.07-8.3,8.78-8.3,8.78s-22.17-4.59-27.65-30.48a10.9,10.9,0,0,0-8.45,1.86c-2.6,1.82-5.07,5.16-6.3,11h0c.5,3.53,1.1,6.9.82,10.08C472.31,178.07,469.06,184.65,470.81,192.18Z"/><path class="cls-27" d="M478.17,152.59c3.4,8.86,8.81,17.11,19.52,23.2,11.83,6.73,16.58,5.42,16.58,5.42s-22.17-4.59-27.65-30.48A10.9,10.9,0,0,0,478.17,152.59Z"/><path class="cls-28" d="M492.19,211.45s18.27-2.13,27.32-12.23c.08-.95.16-1.93.25-3,0-.26.05-.52.07-.76,0-.51.11-1.12.18-1.74-11.08,9-20.51,13.63-28.48,15.77.26,0,.51.07.75.09Z"/><path class="cls-29" d="M519.27,178.12s2.57-3,4-.47-1.42,6.53-1.42,6.53Z"/><path class="cls-30" d="M504.38,128.24l5.91-2.32a1.57,1.57,0,0,1,1.84.53l3,4.06a1.57,1.57,0,0,0,1.27.64h3.53a1.57,1.57,0,0,1,1.56,1.4l.43,4.11a1.57,1.57,0,0,0,1.56,1.4h3.19a1.57,1.57,0,0,1,1.56,1.38l.41,3.38a1.57,1.57,0,0,0,1,1.27l4.11,1.66a1.57,1.57,0,0,1,.75,2.27l-1.91,3.13a1.57,1.57,0,0,0,.66,2.23l4.76,2.27a1.57,1.57,0,0,1,.79,2l-1.29,3.44a1.57,1.57,0,0,0,.46,1.75l2.66,2.24a1.57,1.57,0,0,1,.08,2.33l-2.05,2a1.57,1.57,0,0,0,0,2.25l4.49,4.39a1.57,1.57,0,0,1,.23,2l-1.8,2.85a1.57,1.57,0,0,0,.28,2l4.17,3.75a1.57,1.57,0,0,1,.31,1.95L543.68,193a1.57,1.57,0,0,0,.26,1.9l2.24,2.22a1.57,1.57,0,0,1,.37,1.64l-1.1,3.06a2.26,2.26,0,0,0,.41,1.28A3.81,3.81,0,0,1,544.7,208l-.18,3.72"/><path class="cls-31" d="M498.14,135.48l5.91-2.32a1.57,1.57,0,0,1,1.84.53l3,4.06a1.57,1.57,0,0,0,1.27.64h3.53a1.57,1.57,0,0,1,1.56,1.4l.43,4.11a1.57,1.57,0,0,0,1.56,1.4h3.19a1.57,1.57,0,0,1,1.56,1.38l.41,3.38a1.57,1.57,0,0,0,1,1.27l4.11,1.66a1.57,1.57,0,0,1,.75,2.27l-1.91,3.13a1.57,1.57,0,0,0,.66,2.23l4.76,2.27a1.57,1.57,0,0,1,.79,2l-1.29,3.44a1.57,1.57,0,0,0,.46,1.75l2.66,2.24a1.57,1.57,0,0,1,.08,2.33l-2.05,2a1.57,1.57,0,0,0,0,2.25l4.49,4.39a1.57,1.57,0,0,1,.23,2l-1.8,2.85a1.57,1.57,0,0,0,.28,2l4.17,3.75a1.57,1.57,0,0,1,.31,1.95l-2.58,4.47a1.57,1.57,0,0,0,.26,1.9l2.24,2.22a1.57,1.57,0,0,1,.37,1.64l-1.1,3.06a2.26,2.26,0,0,0,.41,1.28,3.81,3.81,0,0,1-1.16,4.91l-.18,3.72"/><path class="cls-32" d="M512.05,132.86l5.91-2.32a1.57,1.57,0,0,1,1.84.53l3,4.06a1.57,1.57,0,0,0,1.27.64h3.53a1.57,1.57,0,0,1,1.56,1.4l.43,4.11a1.57,1.57,0,0,0,1.56,1.4h3.19a1.57,1.57,0,0,1,1.56,1.38l.41,3.38a1.57,1.57,0,0,0,1,1.27l4.11,1.66a1.57,1.57,0,0,1,.75,2.27l-1.91,3.13a1.57,1.57,0,0,0,.66,2.23l4.76,2.27a1.57,1.57,0,0,1,.79,2l-1.29,3.44a1.57,1.57,0,0,0,.46,1.75l2.66,2.24a1.57,1.57,0,0,1,.08,2.33l-2.05,2a1.57,1.57,0,0,0,0,2.25l4.49,4.39a1.57,1.57,0,0,1,.23,2l-1.8,2.85a1.57,1.57,0,0,0,.28,2l4.17,3.75a1.57,1.57,0,0,1,.31,1.95l-2.58,4.47a1.57,1.57,0,0,0,.26,1.9l2.24,2.22a1.57,1.57,0,0,1,.37,1.64l-1.1,3.06a2.26,2.26,0,0,0,.41,1.28c.6,1.12-2.67,2.65-3.21,3.73"/><path class="cls-33" d="M511.12,128.65l5.7-2.81a1.57,1.57,0,0,1,1.88.38L522,130a1.57,1.57,0,0,0,1.32.53l3.52-.3a1.57,1.57,0,0,1,1.67,1.27l.78,4.06a1.57,1.57,0,0,0,1.67,1.27l3.18-.27a1.57,1.57,0,0,1,1.67,1.24l.69,3.33a1.57,1.57,0,0,0,1.07,1.18l4.24,1.3a1.57,1.57,0,0,1,.94,2.2l-1.64,3.28a1.57,1.57,0,0,0,.85,2.17l4.93,1.86a1.57,1.57,0,0,1,1,1.89l-1,3.54a1.57,1.57,0,0,0,.6,1.7l2.84,2a1.57,1.57,0,0,1,.27,2.31l-1.88,2.14a1.57,1.57,0,0,0,.18,2.24l4.85,4a1.57,1.57,0,0,1,.39,1.93l-1.55,3a1.57,1.57,0,0,0,.45,2l4.47,3.38a1.57,1.57,0,0,1,.47,1.91l-2.19,4.67a1.57,1.57,0,0,0,.42,1.87l2.42,2a1.57,1.57,0,0,1,.51,1.61l-.84,3.14c-.06.22.33.62.52,1.24.76,2.46,2.13,3.8,1,4"/><path class="cls-34" d="M536.31,207.73l-1-7.82c0-.23,3.56.82,3.76.71l3-4.54a.54.54,0,0,0,.09-.9l-7.41-5.85a.54.54,0,0,1-.11-.73l2.21-3.11a.54.54,0,0,0,0-.63l-4-5.51a.54.54,0,0,1-.07-.5l2-5.38a.54.54,0,0,0-.16-.59l-3.25-2.78a.54.54,0,0,1-.15-.61l2.26-5.49a.54.54,0,0,0-.12-.59l-3.33-3.2a.54.54,0,0,1,0-.76l1.56-1.64a.54.54,0,0,0-.05-.79l-4.09-3.26a.54.54,0,0,1-.12-.7l1.83-3a.54.54,0,0,0-.46-.82h-3.71a.54.54,0,0,1-.53-.45l-.65-4.15a.54.54,0,0,0-.53-.45h-4.65a.54.54,0,0,1-.53-.64l.66-3.46a.54.54,0,0,0-.53-.64h-4.82a.54.54,0,0,1-.54-.54v-3.54a.54.54,0,0,0-.54-.54H508.5a.54.54,0,0,1-.54-.54v-4a.54.54,0,0,0-.54-.54h-6.78"/><path class="cls-35" d="M496.22,125.55l2.49,2.79a1.07,1.07,0,0,1,.26.86l-.39,2.89a1.07,1.07,0,0,0,.84,1.19l.48.1a1.07,1.07,0,0,1,.52,1.82L497.56,138a1.07,1.07,0,0,0,.45,1.8l1.28.37a1.07,1.07,0,0,1,.61,1.6l-1.5,2.41a1.07,1.07,0,0,0,.54,1.57l.73.27a1.07,1.07,0,0,1,.64,1.36l-1.51,4.34a1.07,1.07,0,0,0,.62,1.35l1.41.55a1.07,1.07,0,0,1,.59,1.45l-1.66,3.64a1.07,1.07,0,0,0,1,1.52h3a1.06,1.06,0,0,1,.68.25c1.06.89,4.47,3.9,2.95,4.67-1.37.7,1.83,1,3.41,1.11a1.07,1.07,0,0,1,1,.85l1,4.87a1.07,1.07,0,0,0,.48.69L518.1,176"/><path class="cls-36" d="M505.33,135.12l9.86,10.06a1.75,1.75,0,0,1,.15,2.14h0a1.75,1.75,0,0,0,.63,2.51l3.22,1.72a1.74,1.74,0,0,1,.74,2.32,5,5,0,0,0-.67,1.79c.1.55,4,4.73,4.44,5.28.25.34-.24,2.38-.63,3.83a1.74,1.74,0,0,0,1.06,2.08l1.47.57a1.75,1.75,0,0,1,1.12,1.63v5.57a1.73,1.73,0,0,0,.28.94,21,21,0,0,0,2.75,3.57c.87.73.35,4,.11,5.32a1.73,1.73,0,0,0,.12,1l1.37,3.05a1.75,1.75,0,0,1,.13,1L530.23,197a1.75,1.75,0,0,0,.26,1.25l1.74,2.66a1.75,1.75,0,0,1,.22,1.43l-1.69,6a1.75,1.75,0,0,0,.46,1.72l2.89,2.84"/><path class="cls-37" d="M496.73,135.12l9.86,10.06a1.75,1.75,0,0,1,.15,2.14h0a1.75,1.75,0,0,0,.63,2.51l3.22,1.72a1.74,1.74,0,0,1,.74,2.32,5,5,0,0,0-.67,1.79c.1.55,4,4.73,4.44,5.28.25.34-.24,2.38-.63,3.83a1.74,1.74,0,0,0,1.06,2.08l1.47.57a1.75,1.75,0,0,1,1.12,1.63v5.57a1.73,1.73,0,0,0,.28.94,21,21,0,0,0,2.75,3.57c.87.73.35,4,.11,5.32a1.73,1.73,0,0,0,.12,1l1.37,3.05a1.75,1.75,0,0,1,.13,1L521.63,197a1.75,1.75,0,0,0,.26,1.25l1.74,2.66a1.75,1.75,0,0,1,.22,1.43l-1.69,6a1.75,1.75,0,0,0,.46,1.72l2.89,2.84"/><path class="cls-38" d="M491.53,127.79,487,130.43a2,2,0,0,0-1.8,1.19l-.88,2.09a2,2,0,0,1-1,1h0a2,2,0,0,0-1.15,1.46l2.73,3.78c-.16.94-4-.27-5-.27H479a2,2,0,0,0-1.46.66c-1,1.13-2.92,3.37-2.83,3.74a5,5,0,0,0,1.08,1.28,1.94,1.94,0,0,1-.13,2.89c-1,.81-2.18,1.65-2.84,1.64-1.27,0-1.95,3.64-1.56,3.83,2.55,1.23-2,3.31-2.86,4.76a1.94,1.94,0,0,0-.21,1.63,10.49,10.49,0,0,1,.67,2.79c-.12.28-1.82,3.08-2.82,4.72a1.94,1.94,0,0,0,.17,2.26l2.37,2.83a2,2,0,0,1,.22,2.18l-4.92,2.33c-.21.38,2.59,2.3,2.66,2.73l.89,5.12a2,2,0,0,1-.09,1L465.6,191a2,2,0,0,0,.11,1.57l1.47,2.78a2,2,0,0,0,.36.48l1.26,1.24a2,2,0,0,1-.27,3l-.15,5.94"/><path class="cls-39" d="M491.78,134.19l-3.52-2.68a2.24,2.24,0,0,1-.25-.22c-.39-.4-1.8-1.79-2.19-1.35s-1.61.11-2.7-.1a2.24,2.24,0,0,0-2.32,1l-.79,1.24a2.24,2.24,0,0,1-.7.7l-3.12,2a2.24,2.24,0,0,0-.93,1.19l-1,2.86a2.24,2.24,0,0,1-.81,1.1l-2.07,1.51a2.24,2.24,0,0,0-.44.43l-1.39,1.76a2.24,2.24,0,0,0-.48,1.3l-.07,1.84a2.24,2.24,0,0,1-1.84,2.12h0a2.24,2.24,0,0,0-1.75,2.86l.26.85a2.24,2.24,0,0,1-.81,2.45l-2.43,1.8a2.24,2.24,0,0,0-.79,2.52l.16.46a2.24,2.24,0,0,1-.68,2.43l-2.47,2.08a2.24,2.24,0,0,0-.33,3.08l1.49,1.94a2.24,2.24,0,0,1-.39,3.13l-.23.18a2.24,2.24,0,0,0-.79,2.3l.67,2.69a2.24,2.24,0,0,1-.92,2.4l-.5.33a2.24,2.24,0,0,0-.6,3.13l2.34,3.41a2.24,2.24,0,0,1,.27,2l-1.2,3.42a2.24,2.24,0,0,0-.07.26l-.85,3.89"/><path class="cls-40" d="M489.24,145.46l-1.62-1.32a1.56,1.56,0,0,0-2,.07L484,145.65a1.56,1.56,0,0,1-1.83.22h0a1.56,1.56,0,0,0-2.28,1l-.71,2.83a1.91,1.91,0,0,1-1.69,1.11,2.5,2.5,0,0,0-2.1,1.77L475,154c-.15.5-1.38.82-1.92,1.53a3.16,3.16,0,0,0-.26,3.47l.61,1.09"/><path class="cls-41" d="M494.58,129.8l-1.94,2.71a1.67,1.67,0,0,0-.19,1.6l.39,1a1.67,1.67,0,0,1-.48,1.91l-1.89,1.57a1.67,1.67,0,0,0,.32,2.78l.43.22a1.67,1.67,0,0,1,.47,2.64l-1,1.08a1.67,1.67,0,0,0,.16,2.43l.26.21a1.66,1.66,0,0,1,.44,2,32.71,32.71,0,0,0-2.08,4.83c0,.33,1.75,1,3.08,1.48a1.66,1.66,0,0,1,1,2c-.52,1.75-1.17,4.43-.36,4.67a28.31,28.31,0,0,0,5.25.1,1.67,1.67,0,0,1,1.68,2l-.63,2.72a1.67,1.67,0,0,0,1.63,2h3.44a1.67,1.67,0,0,1,1.66,1.83l-.34,3.55a1.67,1.67,0,0,0,1.21,1.77l4.18,1.18a1.67,1.67,0,0,1,1.1,1l1.92,5"/><path class="cls-42" d="M487.6,129.8l-1.94,2.71a1.67,1.67,0,0,0-.19,1.6l.39,1a1.67,1.67,0,0,1-.48,1.91l-1.89,1.57a1.67,1.67,0,0,0,.32,2.78l.43.22a1.67,1.67,0,0,1,.47,2.64l-1,1.08a1.67,1.67,0,0,0,.16,2.43l.26.21a1.66,1.66,0,0,1,.44,2,32.71,32.71,0,0,0-2.08,4.83c0,.33,1.75,1,3.08,1.48a1.66,1.66,0,0,1,1,2c-.52,1.75-1.17,4.43-.36,4.67a28.31,28.31,0,0,0,5.25.1,1.67,1.67,0,0,1,1.68,2l-.63,2.72a1.67,1.67,0,0,0,1.63,2l3.09,1.37c1,0,3.5,3.8,3.4,4.78"/><path class="cls-43" d="M480.41,130.43l6.83-3.37a9.52,9.52,0,0,1,6-2.76l1.94,1.25c1.18-.25,3-1.17,3.3,0,.17.64,1.31-1.18,1.81-1.2h.12a2.27,2.27,0,0,1,2.32,2.6l-.57,3.91a2.27,2.27,0,0,0,1.29,2.39l.67.32a2.27,2.27,0,0,1,1.25,2.59l-.35,1.46a2.27,2.27,0,0,0,.86,2.36l2.23,1.65a2.27,2.27,0,0,1,.72,2.76l-.89,2c-.35.78-1.1,3.47-.57,4.14l6,4.73a2.27,2.27,0,0,1,.25,2.43l-1.09,2.19a2.27,2.27,0,0,0,.22,2.39c1.12,1.47,3,3.84,3.53,3.67s1.13,1.34,1.44,2.23a2.26,2.26,0,0,0,.74,1l3.75,3a2.27,2.27,0,0,1,.59.7l1.91,3.53a2.27,2.27,0,0,1,.2.51l1.19,4.6a2.27,2.27,0,0,1,.06.35l.34,3.46a2.27,2.27,0,0,1-.76,1.93l-1.65,1.46a2.27,2.27,0,0,0,.54,3.76h0a2.27,2.27,0,0,1,.71,3.59l-1.23,1.34a2.27,2.27,0,0,0,.07,3.14l1.26,1.26a2.27,2.27,0,0,1,.64,2l-.88,5.62"/><polygon class="cls-44" points="525.13 262.35 531.78 303.58 504.46 300.35 532.21 306.27 534.05 297.48 525.13 262.35"/><polygon class="cls-45" points="535.08 325.56 501.18 316.51 541.75 341.18 535.08 325.56"/><path class="cls-46" d="M509.19,303.46a20.92,20.92,0,0,1-2.82-2c-4.76-4.19-6.12-5.47-8.45-6.74a48.37,48.37,0,0,0-7.67-2.94,40.5,40.5,0,0,1-6.09-.81c-1.31,2.4.52,4.33,3,4.86s5.67.86,6,2-5.17.85-8.94.61-12.89-1.87-13.86-1.22-1.76,2.23.45,3.25,14.07,1.56,14.16,2.5-14.58-.86-15.71-.65-1.76,2.28-.32,2.78,14.21,1.32,14.29,1.9-9.77.14-11.67,0-1.64,2.56.5,2.89,8.12,1.28,10,1a33.21,33.21,0,0,1,4.66-.15,37.49,37.49,0,0,1-8.43,1.5c-3.44,0-1.42,2.43.77,2.41s10.86-.92,12.93-.8a30.92,30.92,0,0,0,8.29-.39,35.41,35.41,0,0,1,5.12,2.27C509.43,313.3,509.25,307.78,509.19,303.46Z"/></g></svg>